<svg width="28" height="28" viewBox="0 0 28 28" fill="none" xmlns="http://www.w3.org/2000/svg">
<path fill-rule="evenodd" clip-rule="evenodd" d="M10.2457 3.39804C9.20849 3.39804 8.36766 4.23888 8.36766 5.2761V11.5511V15.2924V20.2306C8.36766 20.5764 8.08738 20.8566 7.74163 20.8566C7.39589 20.8566 7.11561 20.5764 7.11561 20.2306V11.5511H7.11402V10.3896C7.11402 9.35236 6.27318 8.51152 5.23595 8.51152C4.19873 8.51152 3.35789 9.35235 3.35789 10.3896V12.2612H1.27204C0.97267 12.2612 0.72998 12.5039 0.72998 12.8032C0.72998 13.1026 0.97267 13.3453 1.27204 13.3453H4.19396C4.42446 13.3453 4.61131 13.1584 4.61131 12.9279V12.2612H4.60993V10.3896C4.60993 10.0438 4.89021 9.76356 5.23595 9.76356C5.58169 9.76356 5.86197 10.0438 5.86197 10.3896V12.2727H5.86357V20.2306C5.86357 21.2678 6.70441 22.1087 7.74163 22.1087C8.77886 22.1087 9.6197 21.2678 9.6197 20.2306V15.2924V11.5511V5.2761C9.6197 4.93036 9.89998 4.65008 10.2457 4.65008C10.5915 4.65008 10.8717 4.93036 10.8717 5.2761V7.90016H10.8694L10.8694 15.8668C10.8694 16.9041 11.7102 17.7449 12.7474 17.7449C13.7847 17.7449 14.6255 16.9041 14.6255 15.8668V15.2238V7.90016V7.25716C14.6255 6.91142 14.9058 6.63114 15.2515 6.63114C15.5973 6.63114 15.8776 6.91142 15.8776 7.25716V15.2238H15.8791V22.7267C15.8791 23.7639 16.72 24.6048 17.7572 24.6048C18.7944 24.6048 19.6353 23.7639 19.6353 22.7267V15.3V13.0236V5.5969C19.6353 5.25116 19.9156 4.97088 20.2613 4.97088C20.607 4.97088 20.8873 5.25116 20.8873 5.5969V12.8441H20.8861V17.753C20.8861 18.7902 21.7269 19.631 22.7641 19.631C23.8013 19.631 24.6422 18.7902 24.6422 17.753V13.3875H26.7269C27.0263 13.3875 27.269 13.1448 27.269 12.8454C27.269 12.546 27.0263 12.3034 26.7269 12.3034H23.8035C23.573 12.3034 23.3861 12.4902 23.3861 12.7207V13.3875H23.3901V17.753C23.3901 18.0987 23.1099 18.379 22.7641 18.379C22.4184 18.379 22.1381 18.0987 22.1381 17.753V15.3H22.1394V5.5969C22.1394 4.55968 21.2985 3.71884 20.2613 3.71884C19.2241 3.71884 18.3832 4.55968 18.3832 5.5969V13.0236V15.3V22.7267C18.3832 23.0724 18.103 23.3527 17.7572 23.3527C17.4115 23.3527 17.1312 23.0724 17.1312 22.7267V13.0236H17.1296V7.25716C17.1296 6.21993 16.2888 5.3791 15.2515 5.3791C14.2143 5.3791 13.3735 6.21993 13.3735 7.25716V7.90016V15.2238V15.8668C13.3735 16.2126 13.0932 16.4929 12.7474 16.4929C12.4017 16.4929 12.1214 16.2126 12.1214 15.8668V15.2924H12.1238V5.2761C12.1238 4.23888 11.2829 3.39804 10.2457 3.39804Z" fill="url(#paint0_linear_10_1386)"/>
<defs>
<linearGradient id="paint0_linear_10_1386" x1="12.3771" y1="-3.06008" x2="31.069" y2="12.1519" gradientUnits="userSpaceOnUse">
<stop offset="0.00779832" stop-color="#00B8E0"/>
<stop offset="1" stop-color="#01F4D5"/>
</linearGradient>
</defs>
</svg>
