<svg width="19" height="14" viewBox="0 0 19 14" fill="none" xmlns="http://www.w3.org/2000/svg">
<g clip-path="url(#clip0_194_2819)">
<path d="M11.1077 13.5795C10.7972 13.5792 10.4996 13.4548 10.28 13.2335C10.0605 13.0122 9.93695 12.7122 9.93657 12.3991V2.38528C9.93844 2.33044 9.92934 2.27577 9.90982 2.22454C9.89029 2.17332 9.86074 2.12658 9.82292 2.08711C9.7851 2.04765 9.73979 2.01626 9.68968 1.99482C9.63958 1.97339 9.58571 1.96234 9.53128 1.96234C9.47686 1.96234 9.42299 1.97339 9.37288 1.99482C9.32278 2.01626 9.27747 2.04765 9.23965 2.08711C9.20183 2.12658 9.17228 2.17332 9.15275 2.22454C9.13323 2.27577 9.12413 2.33044 9.126 2.38528V7.96983C9.126 8.28301 9.00262 8.58336 8.78299 8.80481C8.56337 9.02625 8.2655 9.15066 7.95491 9.15066C7.64431 9.15066 7.34644 9.02625 7.12682 8.80481C6.9072 8.58336 6.78381 8.28301 6.78381 7.96983V1.18032C6.78381 1.072 6.74114 0.968119 6.66518 0.891526C6.58922 0.814934 6.48619 0.771905 6.37877 0.771905C6.27134 0.771905 6.16832 0.814934 6.09236 0.891526C6.01639 0.968119 5.97372 1.072 5.97372 1.18032V10.7983C5.97372 11.1115 5.85034 11.4118 5.63072 11.6333C5.41109 11.8547 5.11322 11.9791 4.80263 11.9791C4.49203 11.9791 4.19416 11.8547 3.97454 11.6333C3.75492 11.4118 3.63154 11.1115 3.63154 10.7983V4.37763C3.62792 4.27168 3.58364 4.17128 3.50803 4.09762C3.43242 4.02395 3.33139 3.98278 3.22625 3.98278C3.12111 3.98278 3.02008 4.02395 2.94447 4.09762C2.86886 4.17128 2.82458 4.27168 2.82096 4.37763V5.95335C2.82096 6.05578 2.78061 6.15401 2.70878 6.22644C2.63695 6.29887 2.53952 6.33956 2.43794 6.33956H0.383023C0.281439 6.33956 0.184016 6.29887 0.112185 6.22644C0.0403541 6.15401 0 6.05578 0 5.95335C0 5.85092 0.0403541 5.75269 0.112185 5.68026C0.184016 5.60784 0.281439 5.56715 0.383023 5.56715H2.05875V4.37763C2.05875 4.06445 2.18213 3.76411 2.40175 3.54266C2.62138 3.32121 2.91925 3.1968 3.22984 3.1968C3.54043 3.1968 3.83831 3.32121 4.05793 3.54266C4.27755 3.76411 4.40093 4.06445 4.40093 4.37763V10.7978C4.40454 10.9038 4.44883 11.0042 4.52444 11.0778C4.60005 11.1515 4.70108 11.1927 4.80622 11.1927C4.91136 11.1927 5.01239 11.1515 5.088 11.0778C5.16361 11.0042 5.20789 10.9038 5.2115 10.7978V1.18032C5.2115 0.867144 5.33489 0.566795 5.55451 0.345347C5.77413 0.123899 6.072 -0.000509063 6.3826 -0.000509063C6.69319 -0.000509063 6.99106 0.123899 7.21068 0.345347C7.43031 0.566795 7.55369 0.867144 7.55369 1.18032V7.96935C7.55182 8.0242 7.56092 8.07886 7.58044 8.13009C7.59997 8.18132 7.62952 8.22806 7.66734 8.26752C7.70516 8.30699 7.75047 8.33838 7.80057 8.35981C7.85068 8.38125 7.90455 8.3923 7.95898 8.3923C8.0134 8.3923 8.06727 8.38125 8.11738 8.35981C8.16748 8.33838 8.21279 8.30699 8.25061 8.26752C8.28843 8.22806 8.31798 8.18132 8.33751 8.13009C8.35703 8.07886 8.36613 8.0242 8.36426 7.96935V2.38528C8.36426 2.07211 8.48764 1.77176 8.70727 1.55031C8.92689 1.32886 9.22476 1.20446 9.53535 1.20446C9.84595 1.20446 10.1438 1.32886 10.3634 1.55031C10.5831 1.77176 10.7064 2.07211 10.7064 2.38528V12.3991C10.7064 12.4528 10.7169 12.5059 10.7373 12.5554C10.7576 12.605 10.7875 12.65 10.8251 12.6879C10.8627 12.7259 10.9073 12.7559 10.9565 12.7765C11.0056 12.797 11.0583 12.8076 11.1115 12.8076C11.1647 12.8076 11.2174 12.797 11.2665 12.7765C11.3156 12.7559 11.3603 12.7259 11.3979 12.6879C11.4355 12.65 11.4654 12.605 11.4857 12.5554C11.5061 12.5059 11.5165 12.4528 11.5165 12.3991V1.17984C11.5165 0.866661 11.6399 0.566313 11.8595 0.344865C12.0792 0.123416 12.377 -0.000991821 12.6876 -0.000991821C12.9982 -0.000991821 13.2961 0.123416 13.5157 0.344865C13.7353 0.566313 13.8587 0.866661 13.8587 1.17984V9.17094C13.8569 9.22578 13.866 9.28045 13.8855 9.33168C13.905 9.3829 13.9346 9.42964 13.9724 9.46911C14.0102 9.50858 14.0555 9.53996 14.1056 9.5614C14.1557 9.58284 14.2096 9.59388 14.264 9.59388C14.3184 9.59388 14.3723 9.58284 14.4224 9.5614C14.4725 9.53996 14.5178 9.50858 14.5556 9.46911C14.5935 9.42964 14.623 9.3829 14.6425 9.33168C14.6621 9.28045 14.6712 9.22578 14.6693 9.17094V5.95335C14.6693 5.85092 14.7097 5.75269 14.7815 5.68026C14.8533 5.60784 14.9507 5.56715 15.0523 5.56715H17.0771C17.1787 5.56715 17.2761 5.60784 17.3479 5.68026C17.4197 5.75269 17.4601 5.85092 17.4601 5.95335C17.4601 6.05578 17.4197 6.15401 17.3479 6.22644C17.2761 6.29887 17.1787 6.33956 17.0771 6.33956H15.4329V9.17094C15.4329 9.48411 15.3096 9.78446 15.0899 10.0059C14.8703 10.2274 14.5724 10.3518 14.2619 10.3518C13.9513 10.3518 13.6534 10.2274 13.4338 10.0059C13.2141 9.78446 13.0908 9.48411 13.0908 9.17094V1.18032C13.0872 1.07437 13.0429 0.973972 12.9673 0.900308C12.8916 0.826644 12.7906 0.78547 12.6855 0.78547C12.5803 0.78547 12.4793 0.826644 12.4037 0.900308C12.3281 0.973972 12.2838 1.07437 12.2802 1.18032V12.3996C12.2797 12.7128 12.1559 13.013 11.9361 13.2342C11.7162 13.4554 11.4183 13.5796 11.1077 13.5795V13.5795Z" fill="white"/>
</g>
<defs>
<clipPath id="clip0_194_2819">
<rect width="18.375" height="14" fill="white"/>
</clipPath>
</defs>
</svg>
